HIERARCHY
ROOT SimulationBone
{
	OFFSET 0.000000 0.000000 0.000000
	CHANNELS 6 Xposition Yposition Zposition Zrotation Yrotation Xrotation 
	JOINT Hips
	{
		OFFSET 0.000000 0.000000 0.000000
		CHANNELS 6 Xposition Yposition Zposition Zrotation Yrotation Xrotation 
		JOINT LeftUpLeg
		{
			OFFSET 0.103455 1.857827 10.548507
			CHANNELS 3 Zrotation Yrotation Xrotation
			JOINT LeftLeg
			{
				OFFSET 43.500000 -0.000031 0.000008
				CHANNELS 3 Zrotation Yrotation Xrotation
				JOINT LeftFoot
				{
					OFFSET 42.372192 0.000011 -0.000014
					CHANNELS 3 Zrotation Yrotation Xrotation
					JOINT LeftToe
					{
						OFFSET 17.299997 -0.000002 0.000013
						CHANNELS 3 Zrotation Yrotation Xrotation
						End Site
						{
							OFFSET 0.000000 0.000000 0.000000
						}
					}
				}
			}
		}
		JOINT RightUpLeg
		{
			OFFSET 0.103457 1.857826 -10.548499
			CHANNELS 3 Zrotation Yrotation Xrotation
			JOINT RightLeg
			{
				OFFSET 43.500046 -0.000019 0.000015
				CHANNELS 3 Zrotation Yrotation Xrotation
				JOINT RightFoot
				{
					OFFSET 42.372261 -0.000004 0.000013
					CHANNELS 3 Zrotation Yrotation Xrotation
					JOINT RightToe
					{
						OFFSET 17.299992 -0.000006 0.000004
						CHANNELS 3 Zrotation Yrotation Xrotation
						End Site
						{
							OFFSET 0.000000 0.000000 0.000000
						}
					}
				}
			}
		}
		JOINT Spine
		{
			OFFSET 6.901968 -2.603730 -0.000002
			CHANNELS 3 Zrotation Yrotation Xrotation
			JOINT Spine1
			{
				OFFSET 12.588100 -0.000001 0.000009
				CHANNELS 3 Zrotation Yrotation Xrotation
				JOINT Spine2
				{
					OFFSET 12.343201 0.000005 -0.000005
					CHANNELS 3 Zrotation Yrotation Xrotation
					JOINT Neck
					{
						OFFSET 25.832893 -0.000008 -0.000006
						CHANNELS 3 Zrotation Yrotation Xrotation
						JOINT Head
						{
							OFFSET 11.766606 0.000005 0.000008
							CHANNELS 3 Zrotation Yrotation Xrotation
							End Site
							{
								OFFSET 0.000000 0.000000 0.000000
							}
						}
					}
					JOINT LeftShoulder
					{
						OFFSET 19.745903 -1.480373 6.000100
						CHANNELS 3 Zrotation Yrotation Xrotation
						JOINT LeftArm
						{
							OFFSET 11.284123 -0.000007 -0.000024
							CHANNELS 3 Zrotation Yrotation Xrotation
							JOINT LeftForeArm
							{
								OFFSET 33.000053 0.000004 0.000036
								CHANNELS 3 Zrotation Yrotation Xrotation
								JOINT LeftHand
								{
									OFFSET 25.200006 0.000021 -0.000003
									CHANNELS 3 Zrotation Yrotation Xrotation
									End Site
									{
										OFFSET 0.000000 0.000000 0.000000
									}
								}
							}
						}
					}
					JOINT RightShoulder
					{
						OFFSET 19.746101 -1.480381 -6.000079
						CHANNELS 3 Zrotation Yrotation Xrotation
						JOINT RightArm
						{
							OFFSET 11.284133 -0.000015 -0.000008
							CHANNELS 3 Zrotation Yrotation Xrotation
							JOINT RightForeArm
							{
								OFFSET 33.000099 0.000016 0.000006
								CHANNELS 3 Zrotation Yrotation Xrotation
								JOINT RightHand
								{
									OFFSET 25.199781 0.000142 0.000425
									CHANNELS 3 Zrotation Yrotation Xrotation
									End Site
									{
										OFFSET 0.000000 0.000000 0.000000
									}
								}
							}
						}
					}
				}
			}
		}
	}
}
MOTION
Frames: 5
Frame Time: 0.016667
-200.038400 0.000000 225.168828 0.000000 68.019980 0.000000 1.282207 89.006312 0.760670 98.410301 -0.252734 -178.143899 169.309125 -4.945939 172.756482 -32.072784 -4.751161 -1.608105 78.887106 1.688317 1.673397 21.454556 0.003097 0.000017 -177.641810 5.723183 -179.389732 -50.329042 0.195577 3.646532 80.761875 -0.527500 8.526650 21.454554 -0.003099 0.000001 9.445085 -1.009683 -0.239314 8.883523 -1.997948 -0.555454 8.565231 -2.001404 -0.543383 19.610068 10.721965 0.357379 -5.416862 -5.399997 1.747556 -163.791724 -71.679870 -18.053623 -1.178173 53.995861 29.085385 -41.757129 -17.221935 1.678769 5.333706 0.116144 12.314092 -162.020651 75.895849 19.867851 -14.710088 -63.471470 9.698823 -122.153509 0.339047 -3.720095 -8.261846 5.372677 -36.873121 
-200.260759 0.000000 226.824374 0.000000 67.402820 0.000000 1.415575 88.786652 0.628575 98.568779 -0.275375 -178.095855 168.220606 -5.238797 172.284528 -32.674736 -4.521497 -1.622242 78.231203 1.673893 1.547103 21.454558 0.003101 0.000017 -174.970745 6.324006 -179.561398 -49.190318 -0.139399 2.202136 80.646570 0.510651 8.494562 21.454553 -0.003099 0.000000 9.430481 -0.926593 -0.076553 8.851063 -1.844533 -0.223722 8.532785 -1.845998 -0.212578 19.100761 10.399908 0.266054 -5.560560 -5.377980 1.700814 -163.128317 -71.396313 -18.739004 -0.192279 54.504727 29.781553 -39.233565 -16.962527 1.593370 6.186470 0.294275 13.045603 -162.197307 75.823708 19.688001 -9.970925 -64.072247 4.979165 -119.931509 0.705070 -3.653635 -8.342235 4.317656 -41.809520 
-200.485171 0.000000 228.512221 0.000000 66.822333 0.000000 1.519612 88.520946 0.516174 98.642198 -0.277801 -178.141905 166.984700 -5.560947 171.718100 -33.328330 -4.174468 -1.621217 77.578295 1.626743 1.354946 21.454557 0.003102 0.000017 -172.549505 6.900229 -179.784004 -47.877997 -0.407877 0.404003 80.607514 1.746829 8.276773 21.454555 -0.003099 -0.000000 9.407858 -0.836915 0.060365 8.803391 -1.675912 0.056934 8.485142 -1.675679 0.067055 18.548115 10.214956 0.233289 -5.810928 -5.688046 1.809033 -162.272088 -71.202535 -19.622441 1.075292 55.098879 30.513173 -36.960182 -16.604953 1.511806 7.117507 0.402460 13.725829 -162.538806 75.880177 19.338653 -6.204183 -64.555824 1.267567 -117.171507 1.018701 -3.555862 -7.765743 2.959679 -46.504747 
-200.710469 0.000000 230.233905 0.000000 66.281191 0.000000 1.601298 88.231483 0.414237 98.651336 -0.273164 -178.253368 165.691729 -5.910801 171.236900 -33.896910 -3.852621 -1.674572 76.866156 1.607239 1.130778 21.454557 0.003105 0.000017 -170.351434 7.479902 179.740622 -46.369026 -0.399869 -1.507675 80.342688 3.045875 7.954907 21.454557 -0.003096 -0.000001 9.385572 -0.740082 0.168017 8.757220 -1.490675 0.279590 8.439006 -1.489092 0.288586 18.025310 10.074906 0.263771 -6.243532 -6.096135 2.017006 -161.526924 -71.051668 -20.391428 2.680231 55.686131 31.413907 -34.955169 -16.204171 1.438896 8.009191 0.399977 14.222355 -162.950937 76.057765 18.916034 -3.627497 -64.960534 -1.411534 -113.827595 1.417579 -3.450365 -6.610608 1.626279 -51.006687 
-200.936128 0.000000 231.987239 0.000000 65.780211 0.000000 1.660037 87.938666 0.317753 98.625124 -0.270801 -178.409054 164.432773 -6.288012 170.977342 -34.255857 -3.682291 -1.829752 76.032550 1.663925 0.911604 21.454557 0.003115 0.000016 -168.342498 8.095333 178.848316 -44.646224 0.047373 -3.278767 79.516426 4.272773 7.614206 21.454551 -0.003090 -0.000002 9.374977 -0.635868 0.248519 8.735149 -1.288595 0.448376 8.416969 -1.285998 0.456149 17.591251 9.900560 0.355922 -6.900885 -6.387282 2.265160 -161.210372 -70.907184 -20.719227 4.631344 56.178110 32.568258 -33.214429 -15.818390 1.375294 8.735559 0.271233 14.402291 -163.375942 76.314900 18.479415 -2.389312 -65.276382 -3.067170 -109.869298 2.006879 -3.336408 -5.058214 0.661428 -55.376536 
